<svg xmlns="http://www.w3.org/2000/svg" viewBox="0 0 48 48">
  <circle cx="24" cy="24" r="24" fill="#111"/>
  <path fill="#fff" d="M30.9 24.9c0-3.5 2.9-5.2 3-5.3-1.7-2.4-4.2-2.7-5.1-2.8-2.2-.2-4.2 1.3-5.3 1.3-1.1 0-2.8-1.3-4.6-1.2-2.4 0-4.6 1.4-5.8 3.5-2.5 4.3-.6 10.6 1.8 14.1 1.2 1.7 2.6 3.6 4.5 3.5 1.8-.1 2.5-1.1 4.7-1.1 2.2 0 2.8 1.1 4.7 1.1 2 0 3.2-1.7 4.4-3.4 1.4-2 1.9-3.9 1.9-4-.1 0-3.8-1.5-3.8-5.7zM27.4 14.5c1-1.2 1.7-2.8 1.5-4.5-1.5.1-3.3 1-4.3 2.2-1 1.1-1.8 2.8-1.6 4.4 1.7.1 3.4-.9 4.4-2.1z"/>
</svg>
