<svg xmlns="http://www.w3.org/2000/svg" viewBox="0 0 48 48">
  <circle cx="24" cy="24" r="24" fill="#fff"/>
  <path fill="#4285F4" d="M38.6 24.4c0-1-.1-1.9-.3-2.8H24v5.4h8.2c-.4 1.8-1.4 3.4-3 4.4v3.6h4.8c2.8-2.6 4.6-6.4 4.6-10.6z"/>
  <path fill="#34A853" d="M24 39c4 0 7.4-1.3 9.9-3.7l-4.8-3.6c-1.3.9-3 1.4-5.1 1.4-3.9 0-7.2-2.6-8.4-6.1h-5v3.7C13.1 35.6 18.2 39 24 39z"/>
  <path fill="#FBBC05" d="M15.6 27c-.3-.9-.5-1.9-.5-3s.2-2.1.5-3v-3.7h-5A15 15 0 0 0 9 24c0 2.4.6 4.6 1.6 6.7l5-3.7z"/>
  <path fill="#EA4335" d="M24 14.9c2.2 0 4.1.8 5.7 2.2l4.2-4.2C31.4 10.5 28 9 24 9c-5.8 0-10.9 3.4-13.4 8.3l5 3.7c1.2-3.5 4.5-6.1 8.4-6.1z"/>
</svg>
