<svg xmlns="http://www.w3.org/2000/svg" viewBox="0 0 900 620">
  <rect width="900" height="620" fill="#e9f0ff"/>
  <path d="M0 440c130-120 260-135 390-45s270 75 510-40v265H0z" fill="#99866a"/>
  <path d="M80 400h110V270H80zm160-35h120V235H240zm180 55h160V210H420zm230-40h150V250H650z" fill="#294fb3" opacity=".82"/>
  <path d="M105 300h55v35h-55zm165-35h58v35h-58zm190-20h74v45h-74zm230 35h72v42h-72z" fill="#fff8ec"/>
  <path d="M0 470h900" stroke="#ff910f" stroke-width="20" opacity=".75"/>
  <circle cx="765" cy="100" r="48" fill="#ff910f"/>
  <rect x="48" y="520" width="330" height="54" rx="27" fill="#ffffff" opacity=".86"/>
  <circle cx="82" cy="547" r="13" fill="#ff910f"/>
  <rect x="112" y="536" width="245" height="11" rx="5" fill="#17347e" opacity=".8"/>
  <rect x="112" y="555" width="165" height="8" rx="4" fill="#294fb3" opacity=".55"/>
</svg>
