<svg xmlns="http://www.w3.org/2000/svg" viewBox="0 0 900 620">
  <rect width="900" height="620" fill="#f7efe2"/>
  <rect y="390" width="900" height="230" fill="#c89b67"/>
  <path d="M90 375h220V180H90zM360 375h170V245H360zM590 375h220V150H590z" fill="#17347e" opacity=".82"/>
  <path d="M120 220h155v30H120zm0 62h155v30H120zm500-25h150v28H620zm0 58h150v28H620z" fill="#ff910f" opacity=".75"/>
  <path d="M210 392c55-70 125-70 180 0m120 0c55-70 125-70 180 0" fill="none" stroke="#294fb3" stroke-width="22"/>
  <circle cx="170" cy="455" r="44" fill="#294fb3"/>
  <circle cx="650" cy="455" r="44" fill="#294fb3"/>
  <rect x="48" y="520" width="330" height="54" rx="27" fill="#ffffff" opacity=".86"/>
  <circle cx="82" cy="547" r="13" fill="#294fb3"/>
  <rect x="112" y="536" width="230" height="11" rx="5" fill="#17347e" opacity=".8"/>
  <rect x="112" y="555" width="120" height="8" rx="4" fill="#ff910f" opacity=".75"/>
</svg>
